:version 1.10
:name ASF
:units
  mass 1
  length 1
  angle deg
:documentation
  ASF file generated by Kaydara
:root
  axis xyz
  order  tx ty tz rx ry rz
  position 0 0 0
  orientation 0 0 0
:bonedata
  begin
    id 1
    name RightUpLegDummy
    direction -1 2.30186e-007 8.31532e-007
    length 4.04083
    axis 0 0 0 xyz
  end
  begin
    id 2
    name RightUpLeg
    direction -0.000919234 -0.999985 0.00544864
    length 17.4221
    axis -3.80308 -0.00076134 -0.0523649 xyz
    dof rx ry rz
  end
  begin
    id 3
    name RightLeg
    direction -0.000919271 -0.999984 -0.00555045
    length 17.1239
    axis 4.00314 0.0181274 -0.183583 xyz
    dof rx ry rz
  end
  begin
    id 4
    name RightFoot
    direction -2.57843e-005 -4.04509e-007 1
    length 6.72091
    axis 8.18909e-005 -0.122003 -0.403008 xyz
    dof rx ry rz
  end
  begin
    id 5
    name RightToes
    direction 0.00116825 -0.014069 0.9999
    length 3.85082
    axis 0.000514414 0.540638 -0.356797 xyz
    dof rx ry rz
  end
  begin
    id 6
    name SpineDummy
    direction 0.0168869 0.966876 -0.254689
    length 6.99894
    axis 0 0 0 xyz
  end
  begin
    id 7
    name Spine
    direction -0.0132008 0.999903 0.00446247
    length 11.1999
    axis -0.00148109 0.00725429 0.756411 xyz
    dof rx ry rz
  end
  begin
    id 8
    name Spine1
    direction 0 0 0
    length 0
    axis -0.000934958 0.0245693 1.46543 xyz
    dof rx ry rz
  end
  begin
    id 9
    name HEadDummy
    direction -0.0255732 0.999672 0.00128215
    length 3.43865
    axis -0.000934958 0.0245693 1.46543 xyz
  end
  begin
    id 10
    name HEad
    direction -0.0472656 0.980052 0.19304
    length 5.12695
    axis -0.000934954 0.0245693 1.46543 xyz
    dof rx ry rz
  end
  begin
    id 11
    name LeftShoulder1Dummy
    direction 0.953098 0.301717 -0.023914
    length 3.68488
    axis -0.000934958 0.0245693 1.46543 xyz
  end
  begin
    id 12
    name LeftShoulder1
    direction 0.962466 0.271167 0.0112566
    length 3.13809
    axis -0.000934958 0.0245693 1.46543 xyz
    dof rx ry rz
  end
  begin
    id 13
    name LeftArm
    direction 0.999943 0.00455037 -0.00961766
    length 11.3419
    axis -23.1648 0.685459 1.22814 xyz
    dof rx ry rz
  end
  begin
    id 14
    name LeftForeArm
    direction 0.999332 0.0131969 0.0340885
    length 8.70632
    axis -9.90633 0.618216 0.0826942 xyz
    dof rx ry rz
  end
  begin
    id 15
    name LeftHand
    direction 0.994373 -0.0366703 0.0993905
    length 5.32135
    axis 0.00675269 0.680415 0.445699 xyz
    dof rx ry rz
  end
  begin
    id 16
    name RightShoulderDummy
    direction -0.967298 0.252589 -0.0230903
    length 3.68488
    axis -0.000934958 0.0245693 1.46543 xyz
  end
  begin
    id 17
    name RightShoulder
    direction -0.975062 0.221602 0.0120823
    length 3.13809
    axis 0.216257 0.0246515 1.45863 xyz
    dof rx ry rz
  end
  begin
    id 18
    name RightArm
    direction -0.99886 -0.00851186 -0.0469687
    length 10.3947
    axis -23.196 0.23503 -0.532632 xyz
    dof rx ry rz
  end
  begin
    id 19
    name RightForeArm
    direction -0.99909 0.00114866 0.0426317
    length 8.68355
    axis -9.91764 -0.134943 0.610517 xyz
    dof rx ry rz
  end
  begin
    id 20
    name RightHand
    direction -0.992888 -0.0489538 0.10852
    length 5.28593
    axis -0.00275396 -0.197403 0.246414 xyz
    dof rx ry rz
  end
  begin
    id 21
    name LeftUpLegDummy
    direction 1 -2.30186e-007 -8.31532e-007
    length 4.04083
    axis 0 0 0 xyz
  end
  begin
    id 22
    name LeftUpLeg
    direction -0.000920097 -1 2.79241e-006
    length 17.4221
    axis -3.48782 0.00143434 -0.0532288 xyz
    dof rx ry rz
  end
  begin
    id 23
    name LeftLeg
    direction -0.000920097 -1 2.7912e-006
    length 17.1239
    axis 3.68162 -0.00806512 -0.0529896 xyz
    dof rx ry rz
  end
  begin
    id 24
    name LeftFoot
    direction -2.57845e-005 -3.987e-007 1
    length 6.72091
    axis 3.02372e-005 -0.00147829 -0.214229 xyz
    dof rx ry rz
  end
  begin
    id 25
    name LeftToes
    direction 0.00813577 -0.00488255 0.999955
    length 3.85048
    axis 3.89895e-005 -0.0014783 -0.214229 xyz
    dof rx ry rz
  end
:hierarchy
  begin
    root RightUpLegDummy SpineDummy LeftUpLegDummy
    RightUpLegDummy RightUpLeg
    RightUpLeg RightLeg
    RightLeg RightFoot
    RightFoot RightToes
    SpineDummy Spine
    Spine Spine1
    Spine1 HEadDummy LeftShoulder1Dummy RightShoulderDummy
    HEadDummy HEad
    LeftShoulder1Dummy LeftShoulder1
    LeftShoulder1 LeftArm
    LeftArm LeftForeArm
    LeftForeArm LeftHand
    RightShoulderDummy RightShoulder
    RightShoulder RightArm
    RightArm RightForeArm
    RightForeArm RightHand
    LeftUpLegDummy LeftUpLeg
    LeftUpLeg LeftLeg
    LeftLeg LeftFoot
    LeftFoot LeftToes
  end

:SAMPLES-PER-SECOND 30
:FULLY-SPECIFIED
:DEGREES
19
root  -32.7705 34.6916 6.67532 -167.143 67.658 -179.673
RightUpLeg  -9.50777 -12.9844 6.41721
RightLeg  3.70478 0.877564 0.00115429
RightFoot  1.52911 0.0128065 0.137292
RightToes  -15.0213 -0.0608009 -0.138619
Spine  -1.81054 -0.104723 0.393402
Spine1  -3.68636 -0.118178 1.38667
HEad  -71.7695 -11.3791 7.24755
LeftShoulder1  -1.94126e-019 -3.10601e-018 -2.51263e-017
LeftArm  -8.32676 21.6557 -83.5391
LeftForeArm  32.2928 -18.789 -3.04106
LeftHand  -0.434745 -1.50817 7.60317
RightShoulder  -4.96962e-017 0 -2.36833e-017
RightArm  -24.4557 -23.3287 76.3841
RightForeArm  52.9567 16.2571 1.1126
RightHand  -0.351768 -0.96469 -9.17781
LeftUpLeg  -11.1918 8.82449 3.94076
LeftLeg  10.0117 15.2301 1.66781
LeftFoot  5.05254 -0.0594571 1.50929
LeftToes  -25.713 1.89912e-006 4.45198e-008
20
root  -32.7441 34.6786 6.65161 -167.425 67.3262 -179.679
RightUpLeg  -9.2339 -13.1884 6.35992
RightLeg  3.86604 0.719202 0.00314307
RightFoot  1.33173 0.0133343 0.129751
RightToes  -15.0068 -0.0606273 -0.138836
Spine  -1.8547 -0.127637 0.402335
Spine1  -3.77659 -0.165774 1.39792
HEad  -71.6902 -11.4915 7.49271
LeftShoulder1  -1.94126e-019 -3.10601e-018 -2.51263e-017
LeftArm  -8.68412 21.7781 -83.6672
LeftForeArm  32.5745 -18.3344 -2.98858
LeftHand  -0.436751 -1.41944 7.60774
RightShoulder  -4.96962e-017 0 -2.36833e-017
RightArm  -25.2031 -23.3561 76.2406
RightForeArm  53.504 15.7512 1.11418
RightHand  -0.348074 -1.01071 -9.27442
LeftUpLeg  -11.1699 8.47999 4.01763
LeftLeg  10.5457 15.2087 1.80726
LeftFoot  4.71862 -0.0516517 1.41516
LeftToes  -25.4988 1.89912e-006 4.45198e-008
21
root  -32.7286 34.6727 6.60898 -167.708 67.078 -179.673
RightUpLeg  -8.93813 -13.3279 6.2538
RightLeg  3.98061 0.589782 0.00392692
RightFoot  1.24466 0.0136518 0.125214
RightToes  -15.2468 -0.0606026 -0.13929
Spine  -1.90602 -0.0958334 0.403726
Spine1  -3.87994 -0.107046 1.39649
HEad  -71.5347 -11.652 7.85017
LeftShoulder1  -1.94126e-019 -3.10601e-018 -2.51263e-017
LeftArm  -9.10159 21.8444 -83.8804
LeftForeArm  32.831 -17.7749 -2.91822
LeftHand  -0.445681 -1.40423 7.77636
RightShoulder  -4.96962e-017 0 -2.36833e-017
RightArm  -25.6564 -23.5763 76.0749
RightForeArm  53.6916 15.5083 1.12623
RightHand  -0.344327 -1.08317 -9.37783
LeftUpLeg  -11.0646 8.11703 4.04879
LeftLeg  10.9517 15.2953 1.92588
LeftFoot  4.50226 -0.0470405 1.36256
LeftToes  -25.4237 1.89912e-006 4.45198e-008
22
root  -32.728 34.6684 6.55999 -168.037 66.7802 -179.718
RightUpLeg  -8.64223 -13.492 6.12061
RightLeg  4.06486 0.424222 0.00370539
RightFoot  1.14337 0.0138324 0.122634
RightToes  -15.2869 -0.0607445 -0.139993
Spine  -1.94814 -0.0857666 0.387923
Spine1  -3.96507 -0.0918019 1.36315
HEad  -71.4802 -11.7326 8.27736
LeftShoulder1  -1.94126e-019 -3.10601e-018 -2.51263e-017
LeftArm  -9.47213 21.9768 -84.0516
LeftForeArm  32.9267 -17.524 -2.88114
LeftHand  -0.45227 -1.45936 7.8299
RightShoulder  -4.96962e-017 0 -2.36833e-017
RightArm  -25.8328 -23.8551 75.9773
RightForeArm  53.6662 15.4886 1.12841
RightHand  -0.346756 -1.05837 -9.27749
LeftUpLeg  -11.0219 7.79537 4.04245
LeftLeg  11.4184 15.2767 2.04848
LeftFoot  4.28021 -0.0418586 1.29989
LeftToes  -25.4013 1.89912e-006 4.45198e-008
23
root  -32.7362 34.6642 6.49767 -168.368 66.5523 -179.705
RightUpLeg  -8.29825 -13.7598 5.96672
RightLeg  4.13973 0.44038 0.00439841
RightFoot  1.1296 0.0139894 0.12039
RightToes  -15.65 -0.0610709 -0.140961
Spine  -1.96389 -0.0808485 0.380638
Spine1  -3.99767 -0.0860586 1.3475
HEad  -71.4302 -11.7608 8.62167
LeftShoulder1  -1.94126e-019 -3.10601e-018 -2.51263e-017
LeftArm  -9.64872 22.2858 -84.2093
LeftForeArm  32.7568 -17.7679 -2.90004
LeftHand  -0.439197 -1.30623 7.76981
RightShoulder  -4.96962e-017 0 -2.36833e-017
RightArm  -25.6502 -24.1109 75.8914
RightForeArm  53.6431 15.5573 1.12365
RightHand  -0.344765 -1.0235 -9.34945
LeftUpLeg  -10.8684 7.63027 4.02729
LeftLeg  11.7908 15.1719 2.13392
LeftFoot  3.98469 -0.0350449 1.21063
LeftToes  -24.9956 1.89912e-006 4.45198e-008
24
root  -32.7703 34.6651 6.43061 -168.51 66.3864 -179.672
RightUpLeg  -8.12982 -13.8798 5.83475
RightLeg  4.15489 0.378071 0.00400513
RightFoot  1.15961 0.0141024 0.118775
RightToes  -15.9391 -0.0615997 -0.143396
Spine  -2.00505 -0.0534459 0.393743
Spine1  -4.07977 -0.0332328 1.37512
HEad  -71.5219 -11.9042 8.75915
LeftShoulder1  -1.94126e-019 -3.10601e-018 -2.51263e-017
LeftArm  -9.56939 22.5656 -84.3891
LeftForeArm  32.5975 -18.0145 -2.91496
LeftHand  -0.439383 -1.44768 7.62329
RightShoulder  -4.96962e-017 0 -2.36833e-017
RightArm  -25.726 -24.2681 75.8356
RightForeArm  53.6218 15.601 1.12098
RightHand  -0.345261 -1.00504 -9.34892
LeftUpLeg  -10.8848 7.5734 3.96027
LeftLeg  12.0945 15.0344 2.19532
LeftFoot  3.80979 -0.0303978 1.15379
LeftToes  -24.9709 1.89912e-006 4.45198e-008
25
root  -32.8201 34.6681 6.35852 -168.694 66.3105 -179.644
RightUpLeg  -7.96467 -13.9127 5.66686
RightLeg  4.19947 0.311477 0.00370653
RightFoot  1.21554 0.014151 0.11808
RightToes  -16.2132 -0.0623486 -0.145659
Spine  -2.02977 -0.0405048 0.411368
Spine1  -4.1303 -0.00623 1.40953
HEad  -71.5076 -11.9695 8.7563
LeftShoulder1  -1.94126e-019 -3.10601e-018 -2.51263e-017
LeftArm  -9.26194 22.961 -84.5237
LeftForeArm  32.3108 -18.4816 -2.95169
LeftHand  -0.431411 -1.45005 7.48534
RightShoulder  -4.96962e-017 0 -2.36833e-017
RightArm  -25.7926 -24.3162 75.8427
RightForeArm  53.6418 15.6254 1.11875
RightHand  -0.346042 -0.997996 -9.35794
LeftUpLeg  -10.8393 7.44233 3.86658
LeftLeg  12.3611 15.0664 2.27061
LeftFoot  3.62231 -0.0264177 1.10605
LeftToes  -24.7308 1.89912e-006 4.45198e-008
26
root  -32.872 34.6732 6.27563 -169.038 66.34 -179.716
RightUpLeg  -7.71238 -13.8838 5.41114
RightLeg  4.2164 0.288078 0.00358357
RightFoot  1.29212 0.0141148 0.118598
RightToes  -16.5478 -0.0633357 -0.147952
Spine  -2.01771 -0.0492217 0.42753
Spine1  -4.10772 -0.020954 1.4434
HEad  -71.3849 -11.8637 8.61176
LeftShoulder1  -1.94126e-019 -3.10601e-018 -2.51263e-017
LeftArm  -8.77491 23.3127 -84.6291
LeftForeArm  31.9113 -18.8064 -2.97219
LeftHand  -0.423846 -1.42373 7.38309
RightShoulder  -4.96962e-017 0 -2.36833e-017
RightArm  -25.8784 -24.2209 75.9078
RightForeArm  53.6623 15.6241 1.11836
RightHand  -0.349639 -1.04336 -9.287
LeftUpLeg  -10.5936 7.36017 3.71385
LeftLeg  12.3973 15.154 2.29317
LeftFoot  3.50245 -0.0239434 1.08041
LeftToes  -24.4445 1.89912e-006 4.45198e-008
27
root  -32.9462 34.6767 6.19692 -169.05 66.4153 -179.596
RightUpLeg  -7.65639 -13.7358 5.26384
RightLeg  4.23565 0.201469 0.00284988
RightFoot  1.37993 0.0139732 0.12062
RightToes  -16.8451 -0.0645786 -0.150985
Spine  -2.03872 -0.0332801 0.445445
Spine1  -4.15021 0.0152953 1.47947
HEad  -71.3185 -11.8152 8.55469
LeftShoulder1  -1.94126e-019 -3.10601e-018 -2.51263e-017
LeftArm  -8.31753 23.5692 -84.6747
LeftForeArm  32.1269 -18.9446 -2.97917
LeftHand  -0.43039 -1.57339 7.34526
RightShoulder  -4.96962e-017 0 -2.36833e-017
RightArm  -26.0254 -24.105 76.0668
RightForeArm  53.7068 15.5767 1.12064
RightHand  -0.352206 -1.01579 -9.28436
LeftUpLeg  -10.5488 7.3484 3.59753
LeftLeg  12.4864 15.2247 2.32749
LeftFoot  3.30621 -0.0201112 1.03234
LeftToes  -24.1668 1.89912e-006 4.45198e-008
28
root  -33.0114 34.6815 6.10636 -169.346 66.5819 -179.662
RightUpLeg  -7.48526 -13.814 4.99274
RightLeg  4.27781 0.427153 0.0053409
RightFoot  1.48252 0.0135177 0.12713
RightToes  -17.4165 -0.0675297 -0.155732
Spine  -2.00499 -0.0350229 0.4362
Spine1  -4.08501 0.0138391 1.46512
HEad  -71.2105 -11.7331 8.56407
LeftShoulder1  -1.94126e-019 -3.10601e-018 -2.51263e-017
LeftArm  -6.10188 23.6005 -84.318
LeftForeArm  32.9344 -18.9715 -2.93378
LeftHand  -0.401408 -1.69061 6.75675
RightShoulder  -4.96962e-017 0 -2.36833e-017
RightArm  -26.1521 -23.9068 76.3392
RightForeArm  53.8417 15.5539 1.11902
RightHand  -0.357501 -0.952428 -9.29761
LeftUpLeg  -10.2977 7.36044 3.40487
LeftLeg  12.4587 15.3556 2.33954
LeftFoot  3.21014 -0.018365 1.01534
LeftToes  -24.1293 1.89912e-006 4.45198e-008
29
root  -33.084 34.6863 6.01677 -169.557 66.6849 -179.725
RightUpLeg  -7.39746 -14.0621 4.75002
RightLeg  4.2912 0.771556 0.00909359
RightFoot  1.58213 0.0128055 0.137306
RightToes  -17.9498 -0.0708223 -0.160137
Spine  -2.01711 -0.0630987 0.377336
Spine1  -4.11116 -0.0417006 1.35534
HEad  -71.1542 -11.79 8.68738
LeftShoulder1  -1.94126e-019 -3.10601e-018 -2.51263e-017
LeftArm  -2.45935 23.6364 -83.2227
LeftForeArm  35.7339 -19.6201 -2.90925
LeftHand  -0.42359 -2.49058 6.45429
RightShoulder  -4.96962e-017 0 -2.36833e-017
RightArm  -26.2968 -23.7585 76.8239
RightForeArm  53.9575 15.4079 1.12813
RightHand  -0.361258 -1.00948 -9.51275
LeftUpLeg  -10.2086 7.40068 3.20169
LeftLeg  12.5393 15.3988 2.36782
LeftFoot  3.01672 -0.0146328 0.966087
LeftToes  -23.7717 1.89912e-006 4.45198e-008
30
root  -33.1562 34.6965 5.93035 -169.813 66.7241 -179.856
RightUpLeg  -7.25421 -14.2759 4.4902
RightLeg  4.16745 1.02569 0.00955906
RightFoot  1.75455 0.01203 0.148387
RightToes  -18.543 -0.074193 -0.165006
Spine  -2.06651 -0.0935604 0.274069
Spine1  -4.20902 -0.104499 1.16156
HEad  -71.2672 -12.1971 8.89873
LeftShoulder1  -1.94126e-019 -3.10601e-018 -2.51263e-017
LeftArm  3.03691 23.3765 -81.0715
LeftForeArm  39.5802 -20.9847 -2.95622
LeftHand  -0.466016 -3.25635 6.50233
RightShoulder  -4.96962e-017 0 -2.36833e-017
RightArm  -25.7676 -23.597 77.3381
RightForeArm  54.1644 14.9167 1.1726
RightHand  -0.37223 -1.3206 -10.5206
LeftUpLeg  -10.1305 7.39462 2.98657
LeftLeg  12.5859 15.4036 2.38118
LeftFoot  2.85701 -0.0114801 0.924443
LeftToes  -23.3083 1.89912e-006 4.45198e-008
31
root  -33.2408 34.7153 5.85462 -169.957 66.8791 -179.845
RightUpLeg  -7.11184 -14.3257 4.29063
RightLeg  4.0013 1.21559 0.00761812
RightFoot  2.07105 0.0111774 0.16057
RightToes  -19.2077 -0.0770863 -0.170422
Spine  -2.07241 -0.0178094 0.174463
Spine1  -4.22015 0.0512525 0.957316
HEad  -71.4835 -12.9143 8.92854
LeftShoulder1  -1.94126e-019 -3.10601e-018 -2.51263e-017
LeftArm  5.93454 22.2618 -78.2243
LeftForeArm  39.6299 -23.0458 -3.20093
LeftHand  -0.432369 -3.84845 5.69981
RightShoulder  -4.96962e-017 0 -2.36833e-017
RightArm  -25.4624 -23.0603 77.449
RightForeArm  54.9549 14.2435 1.24043
RightHand  -0.3939 -1.20582 -10.8478
LeftUpLeg  -10.0866 7.83638 2.82146
LeftLeg  12.6766 15.1077 2.36071
LeftFoot  2.8112 -0.00935084 0.89728
LeftToes  -23.4028 1.89912e-006 4.45198e-008
